# xmcd
#
# Track frame offsets: 
#        150
#        11120
#        23930
#        34840
#        51345
#        62497
#        73372
#        83517
#        105195
#        126450
#        132815
#        147895
#        154517
#        168147
#
# Disc length: 2376 seconds
#
# Revision: 11
# Processed by: cddbd v1.5.2PL0 Copyright (c) Steve Scherf et al.
# Submitted via: ExactAudioCopy v0.99pb4
#
DISCID=b609460e
DTITLE=X - Los Angeles
DYEAR=1980
DGENRE=Punk
TTITLE0=Your Phone's Off The Hook, But You're Not
TTITLE1=Johnny Hit And Run Paulene
TTITLE2=Soul Kitchen
TTITLE3=Nausea
TTITLE4=Sugarlight
TTITLE5=Los Angeles
TTITLE6=Sex And Dying In High Society
TTITLE7=The Unheard Music
TTITLE8=The World's A Mess - It's In My Kiss
TTITLE9=I'm Coming Over (Demo)
TTITLE10=Adult Books (Dangerhouse Rough Mix)
TTITLE11=Delta 88 (Demo)
TTITLE12=Cyrano De Berger's Back (Rehearsal)
TTITLE13=Los Angeles (Dangerhouse Version)
EXTD=YEAR: 1980
EXTT0=
EXTT1=
EXTT2=
EXTT3=
EXTT4=
EXTT5=
EXTT6=
EXTT7=
EXTT8=
EXTT9=
EXTT10=
EXTT11=
EXTT12=
EXTT13=
PLAYORDER=
